<svg width="8" height="5" viewBox="0 0 8 5" fill="none" xmlns="http://www.w3.org/2000/svg">
<path d="M7.69497 0.661762C7.74372 0.710514 7.7681 0.766578 7.7681 0.829955C7.7681 0.893332 7.74372 0.949397 7.69497 0.998149L4.28723 4.40589C4.23848 4.45464 4.18241 4.47902 4.11903 4.47902C4.05566 4.47902 3.99959 4.45464 3.95084 4.40589L0.543098 0.998149C0.494347 0.949397 0.469971 0.893332 0.469971 0.829955C0.469971 0.766578 0.494347 0.710514 0.543098 0.661762L0.908736 0.296124C0.957488 0.247373 1.01355 0.222997 1.07693 0.222997C1.14031 0.222997 1.19637 0.247373 1.24512 0.296124L4.11903 3.17004L6.99295 0.296124C7.0417 0.247373 7.09776 0.222997 7.16114 0.222997C7.22452 0.222997 7.28058 0.247373 7.32933 0.296124L7.69497 0.661762Z" fill="#CFCFCF"/>
</svg>
